Psy Smallest Fan In The World Dancing On Gangnam Style- Shrivastava - IBRG

[img]http://img132.imageshack.us/img132/1273/ibrg.jpg[/img]

[quote]General
Complete name                    :Psy Smallest Fan In The World Dancing On Gangnam Style.mp4
Format                           : MPEG-4
Format profile                   :
Codec ID                         : FACE
File size                        : 1.21 MiB
Duration                         : 45s 534ms
Overall bit rate                 : 223 Kbps
Movie name                       : Shrivastava
Encoded date                     : UTC 2013-01-30 13:40:03
Tagged date                      : UTC 2013-01-30 13:40:03

Video
ID                               : 1
Format                           : AVC
Format/Info                      : Advanced Video Codec
Format profile                   : Baseline@L1.2
Format settings, CABAC           : No
Format settings, ReFrames        : 3 frames
Codec ID                         : avc1
Codec ID/Info                    : Advanced Video Coding
Duration                         : 45s 200ms
Bit rate mode                    : Variable
Bit rate                         : 178 Kbps
Maximum bit rate                 : 224 Kbps
Width                            : 204 pixels
Height                           : 360 pixels
Display aspect ratio             : 0.567
Frame rate mode                  : Constant
Frame rate                       : 15.000 fps
Color space                      : YUV
Chroma subsampling               : 4:2:0
Bit depth                        : 8 bits
Scan type                        : Progressive
Bits/(Pixel*Frame)               : 0.162
Stream size                      : 978 KiB (79%)
Writing library                  : x264 core 116

Encoded date                     : UTC 2013-01-30 13:40:03
Tagged date                      : UTC 2013-01-30 13:40:03

Audio
ID                               : 2
Format                           : AAC
Format/Info                      : Advanced Audio Codec
Format profile                   : LC
Codec ID                         : 40
Duration                         : 45s 534ms
Bit rate mode                    : Variable
Bit rate                         : 45.3 Kbps
Maximum bit rate                 : 49.6 Kbps
Channel(s)                       : 1 channel
Channel positions                : Front: C
Sampling rate                    : 44.1 KHz
Compression mode                 : Lossy
Stream size                      : 252 KiB (20%)

Encoded date                     : UTC 2013-01-30 13:40:03
Tagged date                      : UTC 2013-01-30 13:40:03

[/quote]